<svg width="30" height="28" viewBox="0 0 30 28" fill="none" xmlns="http://www.w3.org/2000/svg">
<g clip-path="url(#clip0_450_4582)">
<path d="M11.0202 25.0869C11.6944 25.0869 12.2409 24.5782 12.2409 23.9507C12.2409 23.3232 11.6944 22.8145 11.0202 22.8145C10.3461 22.8145 9.79956 23.3232 9.79956 23.9507C9.79956 24.5782 10.3461 25.0869 11.0202 25.0869Z" stroke="black" stroke-width="2" stroke-linecap="round" stroke-linejoin="round"/>
<path d="M24.4477 25.0869C25.1219 25.0869 25.6684 24.5782 25.6684 23.9507C25.6684 23.3232 25.1219 22.8145 24.4477 22.8145C23.7736 22.8145 23.2271 23.3232 23.2271 23.9507C23.2271 24.5782 23.7736 25.0869 24.4477 25.0869Z" stroke="black" stroke-width="2" stroke-linecap="round" stroke-linejoin="round"/>
<path d="M1.25488 1.22656H6.1376L9.40902 16.4407C9.52065 16.9638 9.82638 17.4337 10.2727 17.7682C10.719 18.1026 11.2775 18.2803 11.8504 18.27H23.7154C24.2883 18.2803 24.8467 18.1026 25.2931 17.7682C25.7394 17.4337 26.0451 16.9638 26.1567 16.4407L28.1098 6.90772H7.35828" stroke="black" stroke-width="2" stroke-linecap="round" stroke-linejoin="round"/>
</g>
<defs>
<clipPath id="clip0_450_4582">
<rect width="29.2963" height="27.2696" fill="white" transform="translate(0.0341797 0.0898438)"/>
</clipPath>
</defs>
</svg>
