<svg width="113" height="20" viewBox="0 0 113 20" fill="none" xmlns="http://www.w3.org/2000/svg">
<path d="M10 0L13.09 6.26L20 7.27L15 12.14L16.18 19.02L10 15.77L3.82 19.02L5 12.14L0 7.27L6.91 6.26L10 0Z" fill="#F5AC47"/>
<path d="M33 0L36.09 6.26L43 7.27L38 12.14L39.18 19.02L33 15.77L26.82 19.02L28 12.14L23 7.27L29.91 6.26L33 0Z" fill="#F5AC47"/>
<path d="M56 0L59.09 6.26L66 7.27L61 12.14L62.18 19.02L56 15.77L49.82 19.02L51 12.14L46 7.27L52.91 6.26L56 0Z" fill="#F5AC47"/>
<path d="M79 0L82.09 6.26L89 7.27L84 12.14L85.18 19.02L79 15.77L72.82 19.02L74 12.14L69 7.27L75.91 6.26L79 0Z" fill="#F5AC47"/>
<path d="M102 0L105.09 6.26L112 7.27L107 12.14L108.18 19.02L102 15.77L95.82 19.02L97 12.14L92 7.27L98.91 6.26L102 0Z" fill="#F5AC47"/>
</svg>
